<svg viewBox="0 0 100 50" xmlns="http://www.w3.org/2000/svg" fill="currentColor">
  <path d="M50 20 C48 18 46 18 44 19 L40 22 L36 20 C34 18 30 18 26 20 L20 24 C18 26 16 28 14 30 L10 34 C12 32 14 31 16 31 C18 31 20 32 22 34 L28 40 C32 44 38 46 44 44 L46 43 C48 42 49 40 50 38 C51 40 52 42 54 43 L56 44 C62 46 68 44 72 40 L78 34 C80 32 82 31 84 31 C86 31 88 32 90 34 L86 30 C84 28 82 26 80 24 L74 20 C70 18 66 18 64 20 L60 22 L56 19 C54 18 52 18 50 20 Z M50 25 C51 25 52 26 52 27 C52 28 51 29 50 29 C49 29 48 28 48 27 C48 26 49 25 50 25 Z"/>
</svg>

