<svg viewBox="0 0 100 120" xmlns="http://www.w3.org/2000/svg" fill="currentColor">
  <path d="M50 10 C30 10 15 25 15 45 L15 95 C15 100 18 105 22 105 C26 105 28 100 28 95 L28 90 C28 85 30 82 34 82 C38 82 40 85 40 90 L40 95 C40 100 43 105 47 105 C51 105 53 100 53 95 L53 90 C53 85 55 82 59 82 C63 82 65 85 65 90 L65 95 C65 100 68 105 72 105 C76 105 78 100 78 95 L78 90 C78 85 80 82 84 82 C88 82 85 100 85 95 L85 45 C85 25 70 10 50 10 Z M38 35 C38 30 41 26 45 26 C49 26 52 30 52 35 C52 40 49 44 45 44 C41 44 38 40 38 35 Z M55 26 C59 26 62 30 62 35 C62 40 59 44 55 44 C51 44 48 40 48 35 C48 30 51 26 55 26 Z"/>
</svg>

