<svg viewBox="0 0 100 100" xmlns="http://www.w3.org/2000/svg" fill="currentColor">
  <path d="M50 10 C48 10 46 11 46 13 L46 18 C38 20 32 25 28 32 C24 25 18 20 10 18 C8 18 6 20 6 22 L6 48 C6 62 14 74 26 80 C30 86 38 90 46 90 L54 90 C62 90 70 86 74 80 C86 74 94 62 94 48 L94 22 C94 20 92 18 90 18 C82 20 76 25 72 32 C68 25 62 20 54 18 L54 13 C54 11 52 10 50 10 Z M30 40 L38 40 L34 50 L30 40 Z M62 40 L70 40 L66 50 L62 40 Z M40 60 L44 70 L50 68 L56 70 L60 60 L50 65 L40 60 Z"/>
  <ellipse cx="50" cy="15" rx="6" ry="8"/>
</svg>

