<svg xmlns:dc="http://purl.org/dc/elements/1.1/" xmlns:cc="http://creativecommons.org/ns#" xmlns:rdf="http://www.w3.org/1999/02/22-rdf-syntax-ns#" xmlns:svg="http://www.w3.org/2000/svg" xmlns="http://www.w3.org/2000/svg" viewBox="0 0 245.41333 53.466667" height="53.466667" width="245.41333" xml:space="preserve" id="svg2" version="1.1" xmlns:xlink="http://www.w3.org/1999/xlink">
 <metadata id="metadata8">
  <rdf:RDF>
   <cc:Work rdf:about="">
    <dc:format>
     image/svg+xml
    </dc:format>
    <dc:type rdf:resource="http://purl.org/dc/dcmitype/StillImage">
    </dc:type>
   </cc:Work>
  </rdf:RDF>
 </metadata>
 <defs id="defs6">
 </defs>
 <g transform="matrix(1.3333333,0,0,-1.3333333,0,53.466667)" id="g10">
  <g transform="scale(0.1)" id="g12">
   <path id="path14" style="fill:#212121;fill-opacity:1;fill-rule:nonzero;stroke:none" d="m 1693.9,160.109 c -3.81,7.149 -9.01,13.192 -15.47,17.969 -6.26,4.621 -13.56,8.551 -21.72,11.68 -7.96,3.051 -16.26,5.742 -24.73,8 -8.78,2.18 -16.94,4.48 -24.27,6.84 -7.06,2.269 -13.13,5.082 -18.03,8.351 -4.66,3.102 -8.35,7.262 -10.96,12.352 -2.62,5.109 -3.95,12.179 -3.95,21.027 0,7.813 1.6,14.5 4.77,19.883 3.22,5.488 7.34,9.957 12.24,13.269 4.99,3.379 10.58,5.84 16.59,7.321 6.17,1.508 12.09,2.269 17.62,2.269 11.97,0 22.29,-2.179 30.66,-6.492 8.39,-4.308 16.03,-11.058 22.74,-20.058 l 2.05,-2.75 15.32,9.121 -2.39,3.5 c -15.2,22.277 -38.2,33.578 -68.38,33.578 -8.35,0 -16.74,-1.25 -24.91,-3.731 -8.25,-2.5 -15.72,-6.218 -22.23,-11.07 -6.6,-4.918 -11.96,-11.207 -15.91,-18.68 -4,-7.539 -6.02,-16.5 -6.02,-26.64 0,-10.078 1.61,-18.66 4.76,-25.489 3.16,-6.839 7.55,-12.66 13.06,-17.308 5.4,-4.543 11.75,-8.281 18.86,-11.102 6.87,-2.738 14.31,-5.261 22.17,-7.519 7.06,-1.903 14.67,-4.032 22.82,-6.41 7.86,-2.29 15.14,-5.301 21.64,-8.95 6.25,-3.511 11.51,-8.261 15.62,-14.101 3.98,-5.641 5.99,-13.199 5.99,-22.461 0,-7.86 -1.63,-14.918 -4.85,-20.981 -3.28,-6.148 -7.59,-11.339 -12.84,-15.4176 -5.32,-4.1485 -11.31,-7.3086 -17.79,-9.3789 -6.53,-2.0899 -13.07,-3.1524 -19.45,-3.1524 -27.93,0 -48.71,10.3594 -63.49,31.6799 l -2.16,3.109 -14.69,-10.078 2.26,-3.289 c 8.68,-12.5703 19.84,-22.2109 33.19,-28.6602 13.25,-6.4101 28.2,-9.6718 44.43,-9.6718 9.94,0 19.38,1.5195 28.06,4.4922 8.75,3 16.56,7.4101 23.21,13.0898 6.71,5.7383 12.11,12.8203 16.03,21.059 3.94,8.289 5.94,17.761 5.94,28.152 0,10.449 -1.95,19.406 -5.79,26.648">
   </path>
   <path id="path16" style="fill:#212121;fill-opacity:1;fill-rule:nonzero;stroke:none" d="m 1477.11,274.773 c -6.18,9.372 -14.57,16.993 -24.93,22.672 -10.39,5.668 -23.43,8.539 -38.77,8.539 -9.61,0 -19.02,-1.5 -27.98,-4.468 -8.97,-2.961 -17.41,-7.391 -25.12,-13.172 -7.66,-5.758 -14.61,-12.828 -20.66,-21.008 -2.9,-3.934 -5.5,-8.16 -7.76,-12.641 -0.12,4.379 -0.25,8.879 -0.38,13.52 -0.16,5.527 -0.31,10.68 -0.46,15.43 -0.16,4.8 -0.4,8.878 -0.71,12.14 l -0.83,10.188 h -17.86 l 0.9,-10.95 c 0.3,-3.14 0.61,-7.058 0.92,-11.757 0.3,-4.723 0.53,-9.672 0.68,-14.852 l 0.47,-15.461 c 0.15,-5.027 0.22,-9.269 0.22,-12.719 V 66.7148 h 17.83 V 186.016 c 0,16.297 2.18,30.988 6.49,43.66 4.28,12.629 10.11,23.5 17.33,32.289 7.15,8.711 15.72,15.48 25.49,20.14 9.77,4.637 20.34,7 31.43,7 12.44,0 22.79,-2.601 30.77,-7.722 8.1,-5.219 14.62,-11.77 19.36,-19.469 4.8,-7.781 8.12,-16.601 9.87,-26.199 1.8,-9.879 2.71,-19.231 2.71,-27.832 V 66.7148 h 17.82 V 208.844 c 0,11.64 -1.27,23.289 -3.79,34.64 -2.56,11.52 -6.95,22.039 -13.04,31.289">
   </path>
   <path id="path18" style="fill:#212121;fill-opacity:1;fill-rule:nonzero;stroke:none" d="m 1252.53,305.973 h -4.16 c -16.46,0 -31.98,-5.289 -46.13,-15.719 -10.29,-7.582 -18.6,-18.723 -24.82,-33.242 -0.1,3.64 -0.21,7.351 -0.31,11.148 -0.16,5.543 -0.31,10.711 -0.47,15.473 -0.15,4.789 -0.39,8.879 -0.7,12.14 l -0.83,10.2 h -17.86 l 0.9,-10.961 c 0.3,-3.141 0.61,-7.071 0.91,-11.77 0.3,-4.711 0.53,-9.66 0.69,-14.84 l 0.46,-15.461 c 0.15,-5.031 0.23,-9.269 0.23,-12.718 V 66.7109 h 17.82 V 189.801 c 0,11.691 1.44,23.621 4.28,35.453 2.82,11.738 7.24,22.547 13.15,32.129 5.83,9.449 13.36,17.199 22.38,23.039 8.88,5.75 19.85,8.672 32.61,8.672 h 2.55 c 0.74,0 1.6,-0.121 2.54,-0.364 l 4.75,-1.199 v 17.27 l -3.09,0.621 c -1.83,0.371 -3.43,0.551 -4.9,0.551">
   </path>
   <path id="path20" style="fill:#212121;fill-opacity:1;fill-rule:nonzero;stroke:none" d="m 1070.45,272.504 c -10.15,10.437 -22.43,18.707 -36.5,24.566 -14.06,5.852 -29.66,8.821 -46.352,8.821 -16.692,0 -32.219,-2.969 -46.121,-8.828 -13.918,-5.86 -26.118,-14.122 -36.258,-24.559 -10.16,-10.461 -18.121,-23.113 -23.653,-37.602 -5.519,-14.449 -8.32,-30.64 -8.32,-48.121 0,-17.48 2.801,-33.75 8.313,-48.347 5.531,-14.661 13.488,-27.461 23.629,-38.071 10.152,-10.6013 22.359,-18.9528 36.289,-24.82 13.902,-5.8516 29.429,-8.8203 46.121,-8.8203 16.692,0 32.292,2.9609 46.352,8.8086 14.08,5.871 26.37,14.2226 36.52,24.8317 10.14,10.598 18.09,23.399 23.64,38.071 5.51,14.629 8.31,30.898 8.31,48.347 0,17.449 -2.8,33.641 -8.32,48.121 -5.55,14.5 -13.5,27.149 -23.65,37.602 m 14.21,-85.723 c 0,-14.328 -2.25,-27.918 -6.68,-40.39 -4.41,-12.387 -10.88,-23.348 -19.25,-32.571 -8.35,-9.199 -18.63,-16.6286 -30.54,-22.0778 -11.88,-5.4414 -25.54,-8.1992 -40.592,-8.1992 -15.039,0 -28.621,2.7578 -40.34,8.1875 -11.77,5.4531 -21.969,12.8825 -30.32,22.1015 -8.372,9.199 -14.84,20.16 -19.25,32.559 -4.43,12.472 -6.68,26.062 -6.68,40.39 0,14.012 2.25,27.43 6.68,39.903 4.41,12.41 10.878,23.359 19.25,32.578 8.351,9.199 18.539,16.551 30.281,21.84 11.75,5.281 25.328,7.961 40.379,7.961 15.052,0 28.722,-2.68 40.632,-7.969 11.89,-5.293 22.15,-12.641 30.5,-21.832 8.37,-9.219 14.84,-20.18 19.25,-32.578 4.43,-12.461 6.68,-25.891 6.68,-39.903">
   </path>
   <path id="path22" style="fill:#212121;fill-opacity:1;fill-rule:nonzero;stroke:none" d="m 813.293,106.996 c -7.859,-7.789 -17.23,-13.7108 -27.859,-17.6093 -10.743,-3.9297 -21.84,-5.9297 -33.012,-5.9297 -14.41,0 -27.5,2.75 -38.899,8.1719 -11.453,5.4375 -21.332,12.8591 -29.382,22.0391 -8.071,9.211 -14.399,20.18 -18.809,32.598 -4.43,12.461 -6.68,25.722 -6.68,39.41 0,13.691 2.25,26.953 6.68,39.41 4.422,12.43 10.762,23.492 18.84,32.859 8.051,9.34 17.941,16.922 29.391,22.512 11.398,5.57 24.468,8.391 38.859,8.391 11.082,0 21.879,-2.289 32.09,-6.789 10.218,-4.5 19.242,-10.903 26.84,-19.012 l 2.539,-2.719 13.531,12.301 -2.75,2.93 c -8.918,9.519 -19.82,16.988 -32.379,22.226 -12.539,5.231 -25.949,7.871 -39.871,7.871 -16.102,0 -31.102,-3.051 -44.57,-9.09 -13.43,-6.019 -25.301,-14.437 -35.27,-25.031 -9.988,-10.609 -17.852,-23.398 -23.371,-38.019 -5.508,-14.59 -8.309,-30.68 -8.309,-47.84 0,-17.149 2.801,-33.25 8.309,-47.84 5.531,-14.641 13.402,-27.359 23.391,-37.801 9.968,-10.4373 21.851,-18.6991 35.289,-24.5467 13.453,-5.8711 28.441,-8.8399 44.531,-8.8399 13.238,0 26.43,2.2188 39.191,6.5977 12.93,4.4297 24.348,11.6797 33.938,21.5625 l 2.769,2.8477 -12.418,11.9297 -2.609,-2.59">
   </path>
   <path id="path24" style="fill:#212121;fill-opacity:1;fill-rule:nonzero;stroke:none" d="m 594.77,66.7188 c -0.911,5.957 -3.258,24.6875 -4.008,33.8162 -0.75,9.133 -1.141,17.883 -1.141,26 v 95.832 c 0,28.539 -7.48,49.871 -22.238,63.399 -14.641,13.41 -34.801,20.211 -59.934,20.211 -12.347,0 -25.117,-2.391 -37.929,-7.11 -12.84,-4.73 -24.489,-11.769 -34.637,-20.91 l -2.57,-2.309 9.968,-14.55 3.199,2.949 c 8.25,7.582 17.743,13.73 28.211,18.289 10.379,4.512 21.739,6.801 33.758,6.801 19.231,0 34.981,-5.34 46.813,-15.879 11.668,-10.41 17.59,-27.371 17.59,-50.422 v -13.641 h -33.059 c -11.152,0 -23.633,-0.808 -37.082,-2.398 -13.699,-1.621 -26.699,-5.16 -38.648,-10.488 -12.153,-5.442 -22.473,-13.223 -30.653,-23.133 -8.398,-10.168 -12.66,-23.629 -12.66,-40 0,-11.36 2.25,-21.399 6.68,-29.84 4.402,-8.3985 10.281,-15.379 17.472,-20.7579 7.071,-5.3008 15.149,-9.332 24,-11.9804 8.758,-2.6211 17.731,-3.9493 26.649,-3.9493 17.84,0 34.808,5.0704 50.422,15.0586 11.828,7.5899 21.117,18.2891 27.718,31.93 0.18,-3.602 0.442,-7.27 0.789,-10.961 0.461,-4.8674 0.833,-9.5783 1.141,-14.1174 0.309,-4.75 2.192,-18.543 2.84,-21.8398 z M 571.852,175.398 c 0,-10.41 -1.211,-21.222 -3.602,-32.113 -2.34,-10.68 -6.559,-20.597 -12.551,-29.469 -5.937,-8.8 -13.957,-16.1402 -23.847,-21.8199 -9.809,-5.6484 -22.372,-8.5195 -37.301,-8.5195 -6.102,0 -12.68,0.9218 -19.559,2.7304 -6.769,1.7813 -13.051,4.6289 -18.652,8.4805 -5.469,3.75 -10.039,8.8205 -13.559,15.0705 -3.488,6.16 -5.25,14.039 -5.25,23.418 0,12.89 3.18,23.203 9.442,30.66 6.476,7.699 14.898,13.723 25.027,17.891 10.402,4.281 22,7.14 34.48,8.519 12.7,1.402 24.961,2.109 36.461,2.109 h 28.911 v -16.957">
   </path>
   <path id="path26" style="fill:#212121;fill-opacity:1;fill-rule:nonzero;stroke:none" d="m 309.488,210.211 -296.57,-0.027 c -26.1524,2.089 -25.3008,132.589 126.437,143.789 1.454,0.687 1.762,0.84 2.602,3.668 1.41,5.23 2.211,10.32 2.352,15.14 0.16,5.903 -0.614,11.153 -2.332,16.063 -1.551,4.347 -3.899,8.5 -6.969,12.199 4.68,-0.02 9.301,-0.973 13.777,-2.859 5.762,-2.352 11.594,-6.411 16.844,-11.774 4.879,-4.918 9.379,-10.949 13.406,-17.898 1.922,-3.34 3.66,-6.711 5.301,-10.352 0.781,-1.758 1.531,-3.59 2.25,-5.508 148.109,-13.101 148.84,-140.359 122.902,-142.441">
   </path>
   <path id="path28" style="fill:#212121;fill-opacity:1;fill-rule:nonzero;stroke:none" d="m 302.5,196.449 c 0,0 23.449,-149.5193 -120.16,-177.7576 C 175.828,13 165.02,-0.0507813 161.078,0 157.141,-0.0507813 146.32,13 139.801,18.6914 -4.60938,44.0508 19.6406,196.449 19.6406,196.449 H 302.5">
   </path>
   <path id="path30" style="fill:#212121;fill-opacity:1;fill-rule:nonzero;stroke:none" d="m 1805.53,258.602 c 1.56,1.769 2.36,4.07 2.36,6.832 0,2.05 -0.4,3.808 -1.18,5.23 -0.79,1.399 -1.85,2.551 -3.14,3.43 -1.27,0.871 -2.74,1.508 -4.35,1.91 -1.57,0.379 -3.21,0.559 -4.88,0.559 h -12.89 v -36.829 h 7.83 v 14.68 h 3.1 l 8.03,-14.68 h 9.48 l -9.43,15.7 c 2.05,0.64 3.75,1.699 5.07,3.168 m -7.36,3.57 c -1.51,-0.641 -3.12,-0.969 -4.77,-0.969 h -4.12 v 8.309 h 4.79 c 1.48,0 2.92,-0.297 4.29,-0.891 1.16,-0.508 1.71,-1.476 1.71,-3.047 0,-1.781 -0.61,-2.859 -1.9,-3.402">
   </path>
   <path id="path32" style="fill:#212121;fill-opacity:1;fill-rule:nonzero;stroke:none" d="m 1836.84,276.684 c -2.48,5.839 -5.88,10.961 -10.12,15.242 -4.26,4.297 -9.3,7.75 -14.96,10.258 -5.67,2.519 -11.83,3.8 -18.3,3.8 -6.46,0 -12.61,-1.281 -18.29,-3.8 -5.66,-2.508 -10.69,-5.961 -14.95,-10.258 -4.26,-4.301 -7.67,-9.434 -10.12,-15.242 -2.47,-5.809 -3.72,-12.11 -3.72,-18.731 0,-6.64 1.25,-12.918 3.72,-18.64 2.45,-5.739 5.86,-10.84 10.12,-15.129 4.26,-4.289 9.29,-7.711 14.97,-10.168 5.71,-2.453 11.85,-3.692 18.27,-3.692 6.43,0 12.58,1.239 18.29,3.692 5.67,2.449 10.71,5.867 14.97,10.168 4.24,4.269 7.64,9.359 10.12,15.129 2.47,5.761 3.72,12.042 3.72,18.64 0,6.582 -1.25,12.883 -3.72,18.731 m -8.94,-33.469 c -1.94,-4.629 -4.63,-8.762 -7.98,-12.27 -3.37,-3.511 -7.37,-6.293 -11.87,-8.281 -8.99,-3.949 -20.18,-3.949 -29.17,0 -4.53,2 -8.53,4.781 -11.86,8.281 -3.36,3.5 -6.05,7.629 -8,12.27 -1.93,4.64 -2.91,9.598 -2.91,14.738 0,5.27 0.98,10.301 2.91,14.949 1.95,4.633 4.64,8.723 7.99,12.161 3.35,3.429 7.34,6.179 11.87,8.171 4.5,1.981 9.4,2.989 14.58,2.989 5.17,0 10.08,-1.008 14.59,-2.989 4.49,-1.968 8.5,-4.718 11.88,-8.171 3.35,-3.45 6.03,-7.54 7.97,-12.161 1.94,-4.648 2.93,-9.679 2.93,-14.949 0,-5.14 -0.99,-10.098 -2.93,-14.738">
   </path>
  </g>
 </g>
</svg>