<?xml version="1.0" encoding="utf-8"?>
<svg xmlns="http://www.w3.org/2000/svg" width="923" height="200" viewBox="0 0 923 200" fill="none">
<g clip-path="url(#clip0_1956_199)">
<path fill-rule="evenodd" clip-rule="evenodd" d="M412.809 146.066V43.8779H396.004V146.066H412.809ZM247.825 110.27V146.062H230.346V49.1965H268.072C275.496 49.1965 281.918 50.516 287.34 53.155C292.761 55.794 296.89 59.453 299.724 64.1322C302.559 68.8114 303.976 74.1448 303.976 80.1324C303.976 86.3861 302.57 91.7749 299.758 96.2989C296.946 100.823 292.851 104.282 287.475 106.677C282.098 109.072 275.631 110.27 268.072 110.27H247.825ZM247.851 96.435H268.097C274.351 96.435 278.974 94.9935 281.966 92.1106C284.958 89.2277 286.454 85.2803 286.454 80.2685C286.454 77.1638 285.802 74.3142 284.497 71.7195C283.192 69.1249 281.167 67.0404 278.423 65.4658C275.678 63.8913 272.236 63.1041 268.097 63.1041H247.851V96.435ZM347.362 147.409C354.336 147.409 360.387 145.834 365.516 142.685C370.646 139.536 374.571 135.19 377.293 129.646C380.015 124.102 381.376 117.826 381.376 110.818V109.421C381.376 102.413 380.015 96.1374 377.293 90.5934C374.571 85.0493 370.634 80.6917 365.483 77.5205C360.331 74.3493 354.246 72.7637 347.227 72.7637C340.298 72.7637 334.269 74.3493 329.14 77.5205C324.011 80.6917 320.085 85.0493 317.363 90.5934C314.641 96.1374 313.28 102.413 313.28 109.421V110.818C313.28 117.826 314.641 124.102 317.363 129.646C320.085 135.19 324.022 139.536 329.174 142.685C334.325 145.834 340.388 147.409 347.362 147.409ZM334.381 127.58C337.26 131.927 341.58 134.1 347.339 134.1C351.163 134.1 354.369 133.069 356.956 131.006C359.543 128.944 361.455 126.161 362.692 122.657C363.93 119.153 364.548 115.206 364.548 110.815V109.418C364.548 105.071 363.93 101.135 362.692 97.6088C361.455 94.0828 359.532 91.2775 356.922 89.1929C354.312 87.1083 351.073 86.066 347.204 86.066C343.379 86.066 340.185 87.1083 337.62 89.1929C335.056 91.2775 333.155 94.0828 331.917 97.6088C330.68 101.135 330.062 105.071 330.062 109.418V110.815C330.062 117.645 331.501 123.233 334.381 127.58ZM451.76 169.775C448.318 173.345 443.402 175.13 437.013 175.13C434.809 175.13 432.132 174.731 428.982 173.933V161.226L432.087 161.359C436.091 161.359 439.139 160.66 441.231 159.263C443.324 157.866 444.977 155.415 446.192 151.912L448.487 145.791L422.841 74.073H440.995L456.18 122.373L470.893 74.073H488.777L459.69 156.968C457.845 161.935 455.202 166.204 451.76 169.775ZM514.733 146.078V94.0529C517.433 88.8636 522 86.269 528.434 86.269C532.663 86.269 535.869 87.2891 538.051 89.3293C540.233 91.3696 541.324 94.8069 541.324 99.6413V146.078H558.129V98.1111L558.061 96.581C559.051 93.4319 560.727 90.926 563.089 89.0632C565.451 87.2004 568.387 86.269 571.896 86.269C576.171 86.269 579.376 87.2337 581.513 89.163C583.651 91.0924 584.719 94.5186 584.719 99.4417V146.078H601.524V99.5082C601.524 90.2386 599.477 83.4637 595.382 79.1837C591.288 74.9037 585.371 72.7637 577.633 72.7637C572.729 72.7637 568.387 73.7284 564.607 75.6577C560.828 77.587 557.701 80.2814 555.227 83.7409C553.382 80.0153 550.75 77.2544 547.33 75.4581C543.911 73.6618 539.907 72.7637 535.317 72.7637C530.818 72.7637 526.803 73.5288 523.271 75.0589C519.739 76.5891 516.736 78.7956 514.261 81.6785L513.721 74.0943H497.929V146.078H514.733ZM651.455 145.213C648.261 146.677 644.639 147.409 640.59 147.409C635.821 147.409 631.546 146.478 627.767 144.615C623.988 142.752 621.041 140.179 618.926 136.897C616.811 133.615 615.754 129.934 615.754 125.854C615.754 118.181 618.645 112.304 624.426 108.223C630.208 104.143 638.408 102.103 649.026 102.103H659.149V97.4458C659.149 93.6315 658.092 90.6488 655.977 88.4977C653.862 86.3466 650.736 85.2711 646.596 85.2711C644.122 85.2711 641.94 85.6924 640.05 86.5351C638.16 87.3778 636.698 88.531 635.663 89.9946C634.628 91.4583 634.111 93.0993 634.111 94.9178H617.306C617.306 91.0591 618.555 87.4333 621.052 84.0403C623.549 80.6473 627.103 77.9197 631.715 75.8573C636.327 73.7949 641.602 72.7637 647.541 72.7637C653.12 72.7637 658.047 73.6951 662.321 75.5579C666.595 77.4207 669.936 80.2149 672.343 83.9405C674.75 87.6661 675.954 92.2123 675.954 97.5789V129.313C675.954 135.877 676.876 141.089 678.721 144.947V146.078H661.579C660.859 144.526 660.229 142.286 659.689 139.359C657.394 141.798 654.65 143.75 651.455 145.213ZM643.806 134.166C640.251 134.166 637.484 133.246 635.505 131.405C633.525 129.565 632.535 127.181 632.535 124.254C632.535 120.484 634.042 117.556 637.057 115.472C640.071 113.387 644.503 112.345 650.352 112.345H659.126V125.784C657.866 128.09 655.875 130.064 653.153 131.705C650.431 133.346 647.315 134.166 643.806 134.166ZM709.603 97.0467V146.078H692.798V74.0943H708.793L709.265 82.2108C711.11 79.1948 713.404 76.8663 716.149 75.2253C718.893 73.5842 722.065 72.7637 725.665 72.7637C726.61 72.7637 727.678 72.8524 728.871 73.0298C730.063 73.2072 730.951 73.4068 731.536 73.6286L731.401 89.2628C729.152 88.908 726.925 88.7306 724.72 88.7306C717.206 88.7306 712.167 91.5026 709.603 97.0467ZM758.461 146.066V122.714L765.817 115.33L787.076 146.066H806.513L776.615 104.02L803.678 74.082H783.432L763.455 96.3691L758.461 102.49V43.8779H741.724V146.066H758.461ZM863.464 143.55C858.74 146.123 853.026 147.409 846.322 147.409C839.213 147.409 833.004 145.89 827.695 142.852C822.386 139.814 818.314 135.656 815.479 130.378C812.645 125.1 811.228 119.179 811.228 112.614V109.887C811.228 102.48 812.667 95.9711 815.547 90.3605C818.426 84.75 822.386 80.4145 827.425 77.3542C832.464 74.2939 838.133 72.7637 844.432 72.7637C851.316 72.7637 857.097 74.2495 861.777 77.2211C866.456 80.1927 869.954 84.3508 872.271 89.6953C874.588 95.0397 875.747 101.238 875.747 108.29V115.276H828.167C828.482 118.957 829.449 122.217 831.069 125.055C832.689 127.894 834.882 130.111 837.649 131.708C840.416 133.305 843.645 134.103 847.334 134.103C854.893 134.103 860.967 131.176 865.556 125.321L874.532 133.904C871.877 137.762 868.188 140.978 863.464 143.55ZM859.091 103.297H828.451C829.216 97.8416 830.948 93.606 833.648 90.59C836.347 87.574 839.902 86.066 844.311 86.066C849.26 86.066 852.905 87.5629 855.244 90.5567C857.584 93.5505 858.866 97.3759 859.091 102.033V103.297ZM922.428 145.798C919.189 146.863 915.544 147.395 911.495 147.395C905.556 147.395 900.877 145.776 897.457 142.539C894.038 139.301 892.328 134.134 892.328 127.037V86.3218H880.45V74.0805H892.328V56.5169H909.133V74.0805H921.956V86.3218H909.133V125.906C909.133 128.922 909.763 130.974 911.023 132.06C912.282 133.147 914.172 133.69 916.692 133.69C918.491 133.69 920.404 133.468 922.428 133.025V145.798Z" fill="black"/>
<path fill-rule="evenodd" clip-rule="evenodd" d="M161.328 91.6148V0L0 45.4382V46.1766V153.823V154.562L161.328 200V108.385V91.6148ZM145.715 87.2174V20.4393L27.173 53.8299L145.715 87.2174ZM134.132 99.9999L15.6162 66.6168V133.383L134.132 99.9999ZM27.1734 146.17L145.715 179.56V112.783L27.1734 146.17Z" fill="black"/>
</g>
<defs>
<clipPath id="clip0_1956_199">
<rect width="923" height="200" fill="white"/>
</clipPath>
</defs>
</svg>