<svg xmlns="http://www.w3.org/2000/svg" fill="none" viewBox="0 0 380 72" class="mb-[60px]  w-[380px] h-[48px] lg:h-[72px]"><path fill="#212121" d="M11.044 23.812c.051.08.09.14.134.212-.073.087-.139.168-.209.247-1.704 1.906-3.117 4.013-4.283 6.287a28.7 28.7 0 0 0-2.27 5.945 27 27 0 0 0-.69 3.714 26 26 0 0 0-.16 4.064 28 28 0 0 0 .284 2.998c.265 1.78.697 3.519 1.277 5.222.82 2.407 1.913 4.685 3.213 6.866a47 47 0 0 0 3.167 4.626c.056.073.123.14.235.265-.058-.354-.11-.632-.15-.913-.124-.878-.249-1.756-.364-2.634-.129-.987-.183-1.98-.226-2.972a26 26 0 0 1 .03-2.531c.075-1.317.248-2.616.584-3.892.319-1.205.778-2.352 1.462-3.4.768-1.177 1.752-2.12 3.005-2.77a7.4 7.4 0 0 1 2.774-.822c.202-.018.405-.026.607-.04.04-.002.078-.013.125-.02-.009-.11-.085-.16-.136-.223a12.5 12.5 0 0 1-2.11-3.752 10 10 0 0 1-.555-2.69c-.11-1.686.247-3.27 1-4.771q.124-.244.26-.48c.024-.044.06-.082.086-.117.09.017.078.081.089.127a22.5 22.5 0 0 0 1.655 4.604c.758 1.555 1.686 2.998 2.867 4.268 1.368 1.473 2.972 2.592 4.883 3.249.871.299 1.767.487 2.685.573a11 11 0 0 0 2.077.008c.712-.066 1.426-.105 2.14-.156 1.064-.076 2.128-.16 3.193-.228a95 95 0 0 1 2.302-.108c.523-.02 1.046-.022 1.569-.039.68-.022 1.338.095 1.986.287.759.225 1.486.531 2.214.837.374.157.75.31 1.123.468.15.064.304.087.466.093 1.071.042 2.013-.308 2.861-.94.536-.4.989-.881 1.383-1.418.38-.518.707-1.069.96-1.662.054-.127.108-.256.143-.39.103-.4-.06-.672-.461-.768a1.6 1.6 0 0 0-.349-.034 3.2 3.2 0 0 1-1.324-.332 1.4 1.4 0 0 1-.246-.15c-.23-.176-.3-.413-.192-.683.101-.252.252-.47.476-.631.208-.15.42-.294.629-.443.113-.08.221-.166.275-.313-.063-.107-.175-.153-.27-.216a38 38 0 0 1-2.835-2.09 29.7 29.7 0 0 1-5.121-5.365c-.795-1.073-1.565-2.165-2.347-3.248a33 33 0 0 0-2.238-2.804 22.8 22.8 0 0 0-3.556-3.172 31 31 0 0 0-3.484-2.154l-.339-.185c.22-.117.416-.216.608-.324.186-.104.366-.217.554-.329.565.206 1.108.451 1.645.714 1.797.88 3.406 2.032 4.876 3.387 1.1 1.016 2.113 2.117 3.08 3.258 1.024 1.206 2.032 2.424 3.053 3.631 1 1.184 2.04 2.332 3.14 3.424a35 35 0 0 0 6.982 5.389c.388.227.303.108.407.552.21.898.323 1.809.305 2.732-.04 1.97-.697 3.7-2.031 5.16-.705.77-1.524 1.4-2.411 1.944q-1.027.626-2.133 1.1c-.116.05-.24.09-.366.11q-1.002.155-2.012.074a5.4 5.4 0 0 1-1.667-.428c-.373-.157-.745-.319-1.12-.475a7.9 7.9 0 0 0-2.48-.581c-.877-.066-1.749-.015-2.622.05-.947.072-1.889.2-2.827.35-1.37.221-2.735.464-4.077.817a25.3 25.3 0 0 0-4.49 1.675 24.1 24.1 0 0 0-5.931 3.992c-2.14 1.963-3.857 4.25-5.197 6.824a27.5 27.5 0 0 0-2.421 6.6 19 19 0 0 0-.365 2.017c-.012.105-.036.208-.055.314-.135-.008-.192-.11-.264-.183-.566-.567-1.135-1.132-1.69-1.709a61 61 0 0 1-3.233-3.642c-1.776-2.172-3.383-4.46-4.742-6.917a33.4 33.4 0 0 1-2.46-5.525 27 27 0 0 1-1.078-4.316 25 25 0 0 1-.305-2.963c-.03-.77-.03-1.54.015-2.308a24 24 0 0 1 1.691-7.534c1.01-2.53 2.389-4.844 4.064-6.984a32 32 0 0 1 4.765-4.915c.154-.128.309-.256.488-.384z"></path><path fill="#212121" d="m30.682 51.618 2.095 1.735c.005.005.004.02.01.055-.355.212-.721.424-1.08.648q-.53.331-1.047.682c-.352.239-.702.482-1.017.74-.009.033-.014.044-.013.053q.002.017.012.03l.947 1.252c.02.025.046.044.086.08.3-.212.6-.43.905-.64q.462-.317.936-.617.475-.297.962-.574c.324-.184.655-.356.975-.53.657.37 1.29.747 1.94 1.086.642.334 1.304.629 1.963.944-.069.1-.181.144-.278.205a26 26 0 0 0-3.743 2.849c-2.162 1.976-3.953 4.251-5.43 6.778a33 33 0 0 0-2.156 4.434q-.052.135-.107.267c-.008.02-.025.035-.038.052-.249.077-.88.131-1.778.125a35 35 0 0 1-1.76-.059 16 16 0 0 1-1.794-.196c-.008-.107.027-.194.054-.282.285-.941.624-1.863.998-2.772l.117-.294c-.212-.146-1.31-.622-1.579-.688-.157.222-.35.672-.757 1.824-.22.622-.418 1.252-.625 1.875-.33-.007-1.35-.257-2.299-.573-.604-.202-1.207-.408-1.79-.702.031-.163.052-.31.088-.453.807-3.213 2.095-6.215 4.012-8.922 2.136-3.017 4.842-5.393 8.139-7.081a26 26 0 0 1 2.836-1.258q.104-.037.215-.073M23.994 64.56c.204-.331.395-.65.595-.963q.31-.485.637-.96a26 26 0 0 1 2.107-2.658c.247-.275.504-.543.772-.83a27 27 0 0 0-.62-.623c-.203-.2-.391-.418-.615-.59-1.092.874-3.92 4.602-4.366 5.746.192.158.992.632 1.49.878M39.525 0c.037.175.065.274.078.375.129 1.042.175 2.088.12 3.136a20 20 0 0 1-.293 2.578c-.75 4.043-2.67 7.403-5.846 10.027-1.602 1.324-3.39 2.333-5.304 3.128-1.699.707-3.457 1.223-5.254 1.61-1.085.235-2.18.415-3.28.563-.38.051-.762.11-1.145.124-1.01.036-1.925-.259-2.692-.921-1.226-1.058-1.687-2.414-1.315-3.98.37-1.556 1.398-2.53 2.943-2.946.332-.09.674-.11 1.017-.099 1.121.036 2.242.028 3.36-.058 2.56-.195 5.052-.701 7.413-1.735 4.704-2.06 7.944-5.516 9.739-10.33.141-.379.243-.773.364-1.16z"></path><path fill="#212121" d="M28.1 70.965c.03-.087.05-.158.078-.224 1.353-3.222 3.167-6.15 5.55-8.713a24.8 24.8 0 0 1 5.926-4.701q.07-.037.138-.08c.134-.094.266-.091.423-.041q1.357.435 2.76.696 1.086.203 2.186.304c.777.07 1.554.117 2.334.106 1.24-.018 2.474-.11 3.691-.363.062-.014.126-.013.187-.019.034.107-.05.142-.098.187-.581.536-1.154 1.082-1.75 1.602-2.797 2.445-5.78 4.636-8.984 6.52-2.13 1.252-4.337 2.344-6.652 3.209a30.7 30.7 0 0 1-5.044 1.423q-.284.052-.569.093c-.05.007-.103.001-.176.001M11.047 19.757c.048.039.099.075.144.117 1.744 1.618 3.8 2.658 6.078 3.282a14.2 14.2 0 0 0 3.381.477c1.405.038 2.79-.104 4.164-.383.575-.116 1.148-.24 1.722-.36q.063-.015.125-.026c.39-.047.688.195.719.592a1.7 1.7 0 0 1-.15.811 3.5 3.5 0 0 1-.286.536c-1.218 1.84-2.885 3.03-5.06 3.47a7.3 7.3 0 0 1-2.006.104 9.3 9.3 0 0 1-3.463-.953c-1.385-.69-2.508-1.69-3.412-2.94a11.5 11.5 0 0 1-1.793-3.732c-.087-.317-.146-.642-.218-.963zM40.023 21.813c-.268-.234-.522-.462-.782-.681a26 26 0 0 0-.794-.647 26 26 0 0 0-.823-.61q-.402-.293-.816-.564a23 23 0 0 0-.87-.54c-.292-.172-.59-.333-.92-.519.17-.061.3-.109.43-.154a33 33 0 0 0 3.575-1.474 13.3 13.3 0 0 0 3.898-2.865 36 36 0 0 0 2.678-3.186c.51-.684 1-1.385 1.499-2.078.054-.075.11-.147.185-.245.064.187.073.345.08.503.15 3.234-.725 6.165-2.612 8.79-1.123 1.562-2.53 2.828-4.128 3.887-.194.128-.393.251-.6.384M31.54 26.543a4.6 4.6 0 0 1 1.096-.215c1.053-.095 2.063.066 3.006.564.594.313 1.101.732 1.498 1.277.516.708.763 1.496.685 2.377a3 3 0 0 1-.049.316c-.017.093-.043.185-.064.274-.205.111-.422.115-.63.14-.718.09-1.425.047-2.115-.193-.776-.27-1.412-.74-1.94-1.364a6.4 6.4 0 0 1-1.079-1.843c-.143-.367-.251-.748-.372-1.124-.019-.059-.022-.123-.037-.208M87.208 56.145q-5.095 0-8.68-1.68t-5.488-4.649q-1.904-2.967-1.904-6.72h5.488q0 1.85.952 3.697 1.008 1.848 3.304 3.08 2.352 1.231 6.328 1.232 3.696 0 6.048-1.064 2.352-1.121 3.472-2.856a7.16 7.16 0 0 0 1.12-3.864q0-2.52-2.184-4.145-2.184-1.68-6.384-2.072l-4.536-.392q-5.432-.447-8.68-3.36-3.248-2.91-3.248-7.671 0-3.753 1.792-6.553 1.847-2.8 5.096-4.367 3.248-1.624 7.56-1.624 4.256 0 7.504 1.567 3.248 1.569 5.04 4.424 1.848 2.8 1.848 6.72h-5.488a7.6 7.6 0 0 0-.952-3.695q-.896-1.737-2.856-2.856-1.96-1.12-5.096-1.12-3.024 0-5.04 1.064-1.96 1.063-2.968 2.8a7.26 7.26 0 0 0-.952 3.64q0 2.24 1.736 3.976t5.152 2.015l4.536.393q4.2.335 7.224 1.791 3.08 1.4 4.704 3.808 1.68 2.353 1.68 5.657 0 3.75-2.016 6.663t-5.656 4.536q-3.64 1.624-8.456 1.624m32.281-.673q-3.36 0-5.824-.952-2.408-.951-3.752-3.248-1.288-2.351-1.288-6.328V16.16h5.152v29.457q0 2.407 1.288 3.752 1.344 1.287 3.752 1.288h5.264v4.816zm-16.016-26.207v-4.032h20.608v4.032zm24.292 25.871V25.234h4.256v12.32h-.224q0-6.552 2.856-9.576 2.912-3.08 8.68-3.08h1.008v4.816h-1.904q-4.48 0-6.888 2.407-2.408 2.353-2.408 6.833v16.183zm31.433 1.008q-3.92 0-6.776-1.343-2.857-1.345-4.648-3.529a15.7 15.7 0 0 1-2.688-4.983q-.84-2.745-.84-5.6V39.68q0-2.913.84-5.656a15.1 15.1 0 0 1 2.688-4.928q1.791-2.24 4.536-3.529 2.799-1.344 6.552-1.344 4.872 0 8.008 2.128 3.192 2.073 4.704 5.377 1.568 3.303 1.568 7.056v2.408h-26.544V37.16h22.624l-1.232 2.183q0-3.191-1.008-5.488-1.008-2.351-3.024-3.64-2.016-1.287-5.096-1.288-3.193 0-5.32 1.456-2.073 1.457-3.136 3.977-1.008 2.519-1.008 5.824 0 3.191 1.008 5.767 1.064 2.52 3.248 4.032 2.184 1.456 5.544 1.456 3.528 0 5.712-1.567 2.24-1.57 2.688-3.64h5.04q-.616 3.08-2.464 5.32-1.849 2.24-4.648 3.416-2.8 1.175-6.328 1.175m30.369 0q-3.92 0-6.776-1.343-2.856-1.345-4.648-3.529a15.7 15.7 0 0 1-2.688-4.983q-.84-2.745-.84-5.6V39.68q0-2.913.84-5.656a15.1 15.1 0 0 1 2.688-4.928q1.791-2.24 4.536-3.529 2.799-1.344 6.552-1.344 4.872 0 8.008 2.128 3.192 2.073 4.704 5.377 1.568 3.303 1.568 7.056v2.408h-26.544V37.16h22.624l-1.232 2.183q0-3.191-1.008-5.488-1.008-2.351-3.024-3.64-2.016-1.287-5.096-1.288-3.192 0-5.32 1.456-2.073 1.457-3.136 3.977-1.008 2.519-1.008 5.824 0 3.191 1.008 5.767 1.064 2.52 3.248 4.032 2.184 1.456 5.544 1.456 3.528 0 5.712-1.567 2.24-1.57 2.688-3.64h5.04q-.616 3.08-2.464 5.32-1.849 2.24-4.648 3.416-2.8 1.175-6.328 1.175m29.305-.672q-3.36 0-5.824-.952-2.408-.951-3.752-3.248-1.288-2.351-1.288-6.328V16.16h5.152v29.457q0 2.407 1.288 3.752 1.344 1.287 3.752 1.288h5.264v4.816zm-16.016-26.207v-4.032h20.608v4.032zM240.924 56.2q-5.433 0-9.184-1.736-3.753-1.735-5.712-4.76-1.96-3.08-1.96-7h8.008q0 1.68.896 3.193.895 1.456 2.8 2.407 1.96.896 5.152.896 2.856.001 4.76-.784 1.904-.84 2.856-2.183a5.1 5.1 0 0 0 .952-3.024q0-2.13-1.848-3.417-1.792-1.288-5.656-1.623l-3.472-.28q-5.936-.505-9.464-3.697-3.528-3.191-3.528-8.455 0-3.921 1.848-6.72 1.904-2.856 5.208-4.368 3.36-1.568 7.84-1.568 4.704-.001 8.064 1.624 3.415 1.623 5.208 4.592 1.848 2.967 1.848 6.944h-8.008q0-1.624-.784-3.024t-2.352-2.24q-1.569-.896-3.976-.896-2.296-.001-3.808.784-1.513.783-2.296 2.072a5.6 5.6 0 0 0-.728 2.8q0 1.847 1.344 3.248 1.344 1.4 4.368 1.68l3.472.28q4.423.39 7.728 1.904 3.303 1.511 5.152 4.088 1.848 2.576 1.848 6.272 0 3.863-2.016 6.831-2.016 2.913-5.768 4.537-3.696 1.624-8.792 1.624m19.145-1.064V24.673h6.328v13.104h-.56q0-4.59 1.176-7.728 1.176-3.135 3.528-4.703 2.352-1.624 5.768-1.624h.392q3.471-.001 5.768 1.624 2.352 1.567 3.528 4.704 1.176 3.135 1.176 7.727h-2.016q0-4.59 1.176-7.728 1.232-3.135 3.528-4.703 2.352-1.624 5.824-1.624h.336q3.528-.001 5.88 1.624 2.352 1.567 3.528 4.704 1.232 3.135 1.232 7.727v17.36h-8.008V37.106q0-2.8-1.456-4.48-1.401-1.68-4.032-1.68t-4.2 1.736q-1.568 1.735-1.568 4.648v17.807h-8.064V37.106q0-2.8-1.456-4.48-1.4-1.68-3.976-1.68-2.688 0-4.256 1.736t-1.568 4.648v17.807zm69.3 0V46.12h-1.343v-9.967q0-2.577-1.288-3.864-1.233-1.29-3.865-1.289-1.343.001-3.304.056-1.96.057-4.031.168a83 83 0 0 0-3.585.168v-6.776q1.289-.111 2.912-.224a49 49 0 0 1 3.36-.111q1.793-.057 3.305-.056 4.704 0 7.839 1.287 3.136 1.232 4.705 3.92 1.623 2.632 1.624 6.889v18.816zm-9.8.784q-3.303 0-5.824-1.175-2.463-1.176-3.864-3.36-1.344-2.184-1.344-5.264 0-3.36 1.624-5.489 1.68-2.127 4.704-3.191t7.057-1.065h7v4.705h-7.057q-2.631 0-4.032 1.287-1.4 1.29-1.399 3.36 0 2.017 1.399 3.304 1.401 1.233 4.032 1.233a7.5 7.5 0 0 0 2.913-.56q1.343-.616 2.239-2.017.897-1.4 1.009-3.808l1.96 2.185q-.28 3.192-1.568 5.376a8.37 8.37 0 0 1-3.473 3.36q-2.184 1.12-5.376 1.12m20.433-.784V24.673h6.328v12.936h-.168q0-6.495 2.8-9.911t8.176-3.416h1.176v7h-2.184q-3.864 0-5.992 2.072-2.128 2.07-2.128 5.991v15.792zm33.471.392q-4.312 0-7.056-1.063-2.744-1.12-4.088-3.753-1.288-2.631-1.288-7.112V16.16h7.504v27.888q0 2.24 1.176 3.472 1.175 1.176 3.416 1.176h4.704v6.833zm-17.248-24.975v-5.88h21.616v5.88z"></path></svg>